<svg width="24" height="24" viewBox="0 0 24 24" fill="none" xmlns="http://www.w3.org/2000/svg">
<path d="M16.5499 3.08405C17.6279 3.08471 18.6815 3.40492 19.5776 4.00422C20.4737 4.60353 21.172 5.45502 21.5842 6.45109C21.9965 7.44715 22.1042 8.54308 21.8937 9.60034C21.6833 10.6576 21.1642 11.6288 20.4019 12.3911L19.7539 13.0451L18.8939 13.8991L12.0419 20.7511L5.18991 13.9001L4.32991 13.0461L3.68191 12.3921C3.1533 11.8911 2.73039 11.2894 2.43813 10.6224C2.14586 9.95532 1.99017 9.2365 1.98024 8.50831C1.97031 7.78012 2.10635 7.05732 2.38031 6.38256C2.65428 5.7078 3.06063 5.09476 3.57538 4.5796C4.09014 4.06445 4.70287 3.65762 5.37741 3.38313C6.05195 3.10864 6.77465 2.97204 7.50284 2.98141C8.23104 2.99077 8.94998 3.1459 9.61724 3.43765C10.2845 3.72939 10.8866 4.15184 11.3879 4.68005L12.0419 5.33405L12.6969 4.68005C13.7188 3.65887 15.1043 3.08518 16.5489 3.08505" fill="#FF0000"/>
<path d="M16.5499 3.08405C17.6279 3.08471 18.6815 3.40492 19.5776 4.00422C20.4737 4.60353 21.172 5.45502 21.5842 6.45109C21.9965 7.44715 22.1042 8.54308 21.8937 9.60034C21.6833 10.6576 21.1642 11.6288 20.4019 12.3911L19.7539 13.0451L18.8939 13.8991L12.0419 20.7511L5.18991 13.9001L4.32991 13.0461L3.68191 12.3921C3.1533 11.8911 2.73039 11.2894 2.43813 10.6224C2.14586 9.95532 1.99017 9.2365 1.98024 8.50831C1.97031 7.78012 2.10635 7.05732 2.38031 6.38256C2.65428 5.7078 3.06063 5.09476 3.57538 4.5796C4.09014 4.06445 4.70287 3.65762 5.37741 3.38313C6.05195 3.10864 6.77465 2.97204 7.50284 2.98141C8.23104 2.99077 8.94998 3.1459 9.61724 3.43765C10.2845 3.72939 10.8866 4.15184 11.3879 4.68005L12.0419 5.33405L12.6969 4.68005C13.7188 3.65887 15.1043 3.08518 16.5489 3.08505" stroke="#FF0000" stroke-miterlimit="10" stroke-linecap="round" stroke-linejoin="round"/>
</svg>
